<svg xmlns="http://www.w3.org/2000/svg" viewBox="575 179 92 122"><defs><style>.a{fill:#fff;}.b{fill:#e3e3e4;}.c{fill:#c7c7c8;}.d{font-size:11px;font-family:Roboto-Regular, Roboto;}</style></defs><rect class="a" width="92" height="122" transform="translate(575 179)"/><g transform="translate(24)"><rect class="b" width="48" height="40.371" transform="translate(584.988 204)"/><rect class="c" width="47.891" height="1.091" rx="0.546" transform="translate(584.988 289.646)"/><rect class="c" width="47.891" height="1.091" rx="0.546" transform="translate(584.988 262.646)"/><rect class="c" width="41.658" height="2.182" rx="1.091" transform="translate(584.988 251.281)"/><rect class="c" width="35.795" height="2.182" rx="1.091" transform="translate(584.988 256.191)"/><rect class="c" width="40.593" height="1.091" rx="0.546" transform="translate(584.988 266.465)"/><rect class="c" width="45.154" height="1.091" rx="0.546" transform="translate(584.988 270.284)"/><rect class="c" width="30.103" height="1.091" rx="0.546" transform="translate(584.988 274.103)"/><rect class="c" width="47.891" height="1.091" rx="0.546" transform="translate(584.988 277.922)"/><rect class="c" width="40.593" height="1.091" rx="0.546" transform="translate(584.988 281.74)"/><rect class="c" width="30.103" height="1.091" rx="0.546" transform="translate(584.988 285.378)"/></g><text class="d" transform="translate(584 197)"><tspan x="0" y="0">Left Sidebar</tspan></text><rect class="b" width="18" height="87" transform="translate(585 204)"/></svg>