<svg xmlns="http://www.w3.org/2000/svg" viewBox="436 183 92 122"><defs><style>.a{fill:#fff;}.b{fill:#e3e3e4;}.c{fill:#c7c7c8;}.d{font-size:11px;font-family:Roboto-Regular, Roboto;}</style></defs><g transform="translate(-36 -10)"><rect class="a" width="92" height="122" transform="translate(472 193)"/><rect class="b" width="72.013" height="40.371" transform="translate(481.988 218)"/><g transform="translate(0 12)"><rect class="c" width="71.849" height="1.091" rx="0.546" transform="translate(481.988 291.646)"/><g transform="translate(0 4)"><rect class="c" width="71.849" height="1.091" rx="0.546" transform="translate(481.988 260.646)"/><rect class="c" width="62.498" height="2.182" rx="1.091" transform="translate(481.988 249.281)"/><rect class="c" width="53.702" height="2.182" rx="1.091" transform="translate(481.988 254.191)"/><rect class="c" width="60.9" height="1.091" rx="0.546" transform="translate(481.988 264.465)"/><rect class="c" width="67.743" height="1.091" rx="0.546" transform="translate(481.988 268.284)"/><rect class="c" width="45.162" height="1.091" rx="0.546" transform="translate(481.988 272.103)"/><rect class="c" width="71.849" height="1.091" rx="0.546" transform="translate(481.988 275.922)"/><rect class="c" width="60.9" height="1.091" rx="0.546" transform="translate(481.988 279.74)"/><rect class="c" width="45.162" height="1.091" rx="0.546" transform="translate(481.988 283.378)"/></g></g><text class="d" transform="translate(481 211)"><tspan x="0" y="0">No Sidebar</tspan></text></g></svg>