<svg xmlns="http://www.w3.org/2000/svg" viewBox="357 183 92 122"><defs><style>.a{fill:#fff;}.b{fill:#e3e3e4;}.c{fill:#c7c7c8;}.d{font-size:11px;font-family:Roboto-Regular, Roboto;}</style></defs><g transform="translate(-79)"><rect class="a" width="92" height="122" transform="translate(436 183)"/><rect class="b" width="48" height="40.371" transform="translate(445.988 208)"/><rect class="c" width="47.891" height="1.091" rx="0.546" transform="translate(445.988 293.646)"/><rect class="c" width="47.891" height="1.091" rx="0.546" transform="translate(445.988 266.646)"/><rect class="c" width="41.658" height="2.182" rx="1.091" transform="translate(445.988 255.281)"/><rect class="c" width="35.795" height="2.182" rx="1.091" transform="translate(445.988 260.191)"/><rect class="c" width="40.593" height="1.091" rx="0.546" transform="translate(445.988 270.465)"/><rect class="c" width="45.154" height="1.091" rx="0.546" transform="translate(445.988 274.284)"/><rect class="c" width="30.103" height="1.091" rx="0.546" transform="translate(445.988 278.103)"/><rect class="c" width="47.891" height="1.091" rx="0.546" transform="translate(445.988 281.922)"/><rect class="c" width="40.593" height="1.091" rx="0.546" transform="translate(445.988 285.74)"/><rect class="c" width="30.103" height="1.091" rx="0.546" transform="translate(445.988 289.378)"/><text class="d" transform="translate(445 201)"><tspan x="0" y="0">Right Sidebar</tspan></text><rect class="b" width="18" height="87" transform="translate(500 208)"/></g></svg>