<svg xmlns="http://www.w3.org/2000/svg" viewBox="966 314 48 48"><defs><style>.a{fill:#bf1d1e;}.b{fill:#fff;}</style></defs><rect class="a" width="48" height="48" transform="translate(966 314)"/><path class="b" d="M59.744,0C52.08,0,48,4.911,48,10.266c0,2.484,1.388,5.581,3.609,6.563.337.152.521.087.6-.225.066-.238.358-1.382.5-1.923a.494.494,0,0,0-.119-.486,6.368,6.368,0,0,1-1.323-3.864c0-3.735,2.969-7.362,8.022-7.362,4.369,0,7.426,2.838,7.426,6.9,0,4.588-2.428,7.762-5.582,7.762A2.5,2.5,0,0,1,58.5,14.564c.5-2.019,1.475-4.189,1.475-5.645A2.168,2.168,0,0,0,57.73,6.533c-1.777,0-3.219,1.76-3.219,4.123a5.878,5.878,0,0,0,.531,2.515s-1.758,7.1-2.085,8.429a18.862,18.862,0,0,0,.129,6.2.184.184,0,0,0,.336.086,22.02,22.02,0,0,0,2.894-5.451c.217-.8,1.106-4.037,1.106-4.037A4.831,4.831,0,0,0,61.5,20.337c5.355,0,9.225-4.707,9.225-10.548C70.7,4.189,65.911,0,59.744,0Z" transform="translate(930.996 324)"/></svg>